<svg xmlns="http://www.w3.org/2000/svg" enable-background="new 0 0 100 100" viewBox="0 0 100 100">
    <path d="M73,49c-2.97,0-5.81,0.59-8.4,1.67c-3.32-3.81-7.47-6.87-12.17-8.9C56.45,38.11,59,32.85,59,27c0-11.03-8.97-20-20-20
		s-20,8.97-20,20c0,5.85,2.54,11.11,6.56,14.77C13.48,46.99,5,59.02,5,73v4c0,3.31,2.69,6,6,6h43.57C58.5,89.01,65.29,93,73,93
		c12.13,0,22-9.87,22-22S85.13,49,73,49z M23,27c0-8.82,7.18-16,16-16s16,7.18,16,16s-7.18,16-16,16S23,35.82,23,27z M52.51,79H11
		c-1.11,0-2-0.9-2-2v-4c0-13.21,8.57-24.44,20.45-28.43C32.29,46.12,35.54,47,39,47c3.45,0,6.71-0.88,9.55-2.43
		c4.79,1.61,9.04,4.4,12.41,8.02C54.97,56.53,51,63.31,51,71C51,73.82,51.54,76.52,52.51,79z M73,89c-9.93,0-18-8.08-18-18
		c0-9.93,8.07-18,18-18c9.92,0,18,8.07,18,18C91,80.92,82.92,89,73,89z"/>
    <path d="M73,59c-1.11,0-2,0.89-2,2v12c0,1.1,0.89,2,2,2c1.1,0,2-0.9,2-2V61C75,59.89,74.1,59,73,59z"/>
    <circle cx="73" cy="81" r="2"/>
</svg>