<svg xmlns="http://www.w3.org/2000/svg" viewBox="0 0 100 100">
    <g data-name="Layer 2">
        <path d="M50,3.5A46.5,46.5,0,0,0,16.08,81.8L3.94,93.94a1.5,1.5,0,0,0-.33,1.63A1.51,1.51,0,0,0,5,96.5H50a46.5,46.5,0,0,0,0-93Zm0,90H8.62L19.24,82.88a1.49,1.49,0,0,0,0-2.12A43.5,43.5,0,1,1,50,93.5Z"/>
        <path d="M50 32a5.47 5.47 0 10-5.47-5.47A5.47 5.47 0 0050 32zm0-7.94a2.47 2.47 0 11-2.47 2.47A2.48 2.48 0 0150 24.1zM58.38 68H55.47V39.12A5.47 5.47 0 0050 33.65H43.45a5.47 5.47 0 000 10.94h1.08V68H41.62a5.47 5.47 0 100 10.94H58.38a5.47 5.47 0 100-10.94zm0 7.94H41.62a2.47 2.47 0 110-4.94H46a1.5 1.5 0 001.5-1.5V43.09a1.5 1.5 0 00-1.5-1.5H43.45a2.47 2.47 0 010-4.94H50a2.48 2.48 0 012.47 2.47V69.46A1.5 1.5 0 0054 71h4.41a2.47 2.47 0 110 4.94z"/>
    </g>
</svg>